<?xml version="1.0" encoding="utf-8"?>
<!-- Generator: Adobe Illustrator 27.0.0, SVG Export Plug-In . SVG Version: 6.00 Build 0)  -->
<svg version="1.1" id="Layer_1" xmlns="http://www.w3.org/2000/svg" xmlns:xlink="http://www.w3.org/1999/xlink" x="0px" y="0px"
	 viewBox="0 0 800 800" style="enable-background:new 0 0 800 800;" xml:space="preserve">
<style type="text/css">
	.st0{fill:#7EADDB;}
</style>
<path class="st0" d="M171.6,370.7H343v57.1H171.6V370.7z"/>
<path class="st0" d="M142.7,285.5h457.5v111.6h57.1v-284c0-31.2-25.4-56.6-56.6-56.6h-21.4c-22.8,0-43,13.1-51.5,33.3
	c-4.5,10.6-21.8,10.7-26.2,0c-8.5-20.2-28.7-33.3-51.5-33.3h-14.2c-22.8,0-43,13.1-51.5,33.3c-4.5,10.6-21.8,10.6-26.2,0
	c-8.5-20.2-28.7-33.3-51.5-33.3h-13.6c-22.8,0-43,13.1-51.5,33.3c-4.5,10.6-21.8,10.7-26.2,0c-8.5-20.2-28.7-33.3-51.5-33.3h-21.5
	c-31.2,0-56.6,25.4-56.6,56.6v629h313.4V685H143.1L142.7,285.5L142.7,285.5z M162.9,111.9c11.1,26.6,37,43.8,65.8,43.8
	c28.8,0,54.6-17.2,64.6-42l12.4-1.8c11.2,26.6,37,43.8,65.8,43.8c28.8,0,54.6-17.2,64.6-42l13-1.8c11.1,26.6,37,43.8,65.8,43.8
	c28.8,0,54.6-17.2,64.6-42l20.8-0.5v115.2H142.7l-0.1-114.7L162.9,111.9L162.9,111.9z"/>
<path class="st0" d="M656.8,628.6l-29.4-69.2c9.8-12.2,15.6-27.7,15.6-44.5c0-39.5-32-71.4-71.4-71.4c-39.4,0-71.4,32-71.4,71.4
	c0,16.9,5.9,32.4,15.7,44.7l-29.3,69.1h-58v114.3h285.7V628.6H656.8L656.8,628.6z M571.6,486.3c15.8,0,28.6,12.8,28.6,28.6
	c0,15.8-12.8,28.6-28.6,28.6c-15.8,0-28.6-12.8-28.6-28.6C543,499.1,555.8,486.3,571.6,486.3z M552.2,583.6
	c6.3,1.8,12.9,2.7,19.4,2.7c6.8,0,13.3-0.9,19.5-2.7l19.1,45.1h-77.2L552.2,583.6L552.2,583.6z M671.3,700.1h-200v-28.6h200V700.1z"
	/>
</svg>
