<?xml version="1.0" encoding="utf-8"?>
<!-- Generator: Adobe Illustrator 27.0.0, SVG Export Plug-In . SVG Version: 6.00 Build 0)  -->
<svg version="1.1" id="Layer_1" xmlns="http://www.w3.org/2000/svg" xmlns:xlink="http://www.w3.org/1999/xlink" x="0px" y="0px"
	 viewBox="0 0 800 800" style="enable-background:new 0 0 800 800;" xml:space="preserve">
<style type="text/css">
	.st0{fill:#7EADDB;}
</style>
<g>
	<g>
		<path class="st0" d="M800,634.1V48.8H0v585.4h292.7v58.5h-68.3v58.5h351.2v-58.5h-68.3v-58.5L800,634.1L800,634.1z M448.8,692.7
			h-97.6v-58.5h97.6V692.7z M58.5,575.6V107.3h682.9v468.3H58.5z"/>
	</g>
</g>
<g>
	<g>
		<path class="st0" d="M389.5,392.2c0-9.1-1.1-17.9-3.3-26.3l28.9-16.7l-29.3-50.7l-28.9,16.7c-12.6-12.2-28.1-21.4-45.4-26.3v-33.4
			H253v33.4c-17.3,4.9-32.9,14.1-45.4,26.3l-28.9-16.7l-29.3,50.7l28.9,16.7c-2.1,8.4-3.3,17.2-3.3,26.3c0,9.1,1.1,17.9,3.3,26.3
			l-28.9,16.7l29.3,50.7l28.9-16.7c12.6,12.2,28.1,21.4,45.4,26.3v33.4h58.5v-33.4c17.3-4.9,32.9-14.1,45.4-26.3l28.9,16.7
			l29.3-50.7l-28.9-16.7C388.4,410,389.5,401.2,389.5,392.2z M282.2,440.9c-26.9,0-48.8-21.9-48.8-48.8c0-26.9,21.9-48.8,48.8-48.8
			c26.9,0,48.8,21.9,48.8,48.8C331,419.1,309.1,440.9,282.2,440.9z"/>
	</g>
</g>
<g>
	<g>
		<path class="st0" d="M636.1,284.8v-58.5h-34.3c-1.8-5-4-9.9-6.7-14.6c-2.7-4.7-5.8-9.1-9.3-13.2l17.1-29.7l-50.7-29.3L535,169.3
			c-10.7-2-21.6-2-32.1-0.1l-17.1-29.7l-50.7,29.3l17.2,29.7c-7.1,8.3-12.4,17.7-16,27.8h-34.4v58.5h34.3c1.8,5,4,9.9,6.7,14.6
			c2.7,4.7,5.9,9.1,9.3,13.1l-17.2,29.7l50.7,29.3l17.2-29.8c5.3,1,10.7,1.5,16.2,1.5c5.3,0,10.6-0.5,15.9-1.5l17.2,29.7l50.7-29.3
			l-17.1-29.7c7-8.1,12.4-17.5,16-27.8L636.1,284.8L636.1,284.8z M533.6,280.9c-14,8.1-31.9,3.3-40-10.7s-3.3-31.9,10.7-40
			c4.5-2.6,9.5-3.9,14.6-3.9c2.5,0,5.1,0.3,7.6,1c7.6,2,13.9,6.9,17.8,13.6C552.4,254.9,547.6,272.8,533.6,280.9z"/>
	</g>
</g>
</svg>
