<?xml version="1.0" encoding="utf-8"?>
<!-- Generator: Adobe Illustrator 27.0.0, SVG Export Plug-In . SVG Version: 6.00 Build 0)  -->
<svg version="1.1" id="Layer_1" xmlns="http://www.w3.org/2000/svg" xmlns:xlink="http://www.w3.org/1999/xlink" x="0px" y="0px"
	 viewBox="0 0 800 800" style="enable-background:new 0 0 800 800;" xml:space="preserve">
<style type="text/css">
	.st0{fill:#7EADDB;}
</style>
<path class="st0" d="M589.2,418.5c-96.9,0-175.4,78.5-175.4,175.4s78.5,175.4,175.4,175.4c96.9,0,175.4-78.5,175.4-175.4v0
	C764.1,497.2,685.9,419,589.2,418.5z M620,609.2c-4.8-0.1-9.5-1.2-13.8-3.1L540,672.3c-3.7,3.7-8.6,5.9-13.8,6.2
	c-5.4,0.5-10.6-1.8-13.8-6.2c-7.7-8.2-7.7-21,0-29.2l66.2-66.2c-1.8-4.4-2.8-9.1-3.1-13.8c-2.8-29.3,18.7-55.4,48.1-58.2
	c1.4-0.1,2.8-0.2,4.2-0.2c4.8,0.1,9.5,1.2,13.8,3.1c3.1,0,3.1,3.1,1.5,4.6l-30.8,29.2c-2.1,1.1-3,3.7-1.9,5.8
	c0.4,0.8,1.1,1.5,1.9,1.9l20,20c2,2.5,5.7,3,8.2,1c0.4-0.3,0.7-0.6,1-1l29.2-29.2c1.5-1.5,6.2-1.5,6.2,1.5c1.6,4.5,2.6,9.1,3.1,13.8
	c-0.5,30.3-25.4,54.5-55.8,54.1C622.8,609.4,621.4,609.4,620,609.2z"/>
<circle class="st0" cx="333.8" cy="229.2" r="198.5"/>
<path class="st0" d="M387.7,766.2c33.8,0,15.4-23.1,15.4-23.1l0,0c-34-42.3-52.4-95-52.3-149.2c-0.2-34,7.2-67.6,21.5-98.5
	c0.6-1.8,1.7-3.3,3.1-4.6c10.8-21.5-10.8-23.1-10.8-23.1l0,0c-9.7-1.3-19.5-1.8-29.2-1.5C185.7,466.7,58.9,576.6,36.9,724.6
	c0,15.4,4.6,43.1,52.3,43.1h293.8C386.2,766.2,386.2,766.2,387.7,766.2z"/>
</svg>
